<svg width="32" height="32" viewBox="0 0 32 32" fill="none" xmlns="http://www.w3.org/2000/svg">
<path d="M28 3.2H23.2V0.8C23.2 0.587827 23.1157 0.384344 22.9657 0.234315C22.8157 0.0842856 22.6122 0 22.4 0C22.1878 0 21.9843 0.0842856 21.8343 0.234315C21.6843 0.384344 21.6 0.587827 21.6 0.8V3.2H10.4V0.8C10.4 0.587827 10.3157 0.384344 10.1657 0.234315C10.0157 0.0842856 9.81217 0 9.6 0C9.38783 0 9.18434 0.0842856 9.03431 0.234315C8.88429 0.384344 8.8 0.587827 8.8 0.8V3.2H4C2.93952 3.20127 1.92285 3.62311 1.17298 4.37298C0.423106 5.12285 0.00127029 6.13952 0 7.2V28C0.00127029 29.0605 0.423106 30.0772 1.17298 30.827C1.92285 31.5769 2.93952 31.9987 4 32H28C29.0609 32 30.0783 31.5786 30.8284 30.8284C31.5786 30.0783 32 29.0609 32 28V7.2C32 6.13913 31.5786 5.12172 30.8284 4.37157C30.0783 3.62143 29.0609 3.2 28 3.2ZM30.4 28C30.4 28.6365 30.1471 29.247 29.6971 29.6971C29.247 30.1471 28.6365 30.4 28 30.4H4C3.36348 30.4 2.75303 30.1471 2.30294 29.6971C1.85286 29.247 1.6 28.6365 1.6 28V14.4H30.4V28ZM30.4 12.8H1.6V7.2C1.6 5.8752 2.672 4.8 4 4.8H8.8V7.2C8.8 7.41217 8.88429 7.61566 9.03431 7.76569C9.18434 7.91571 9.38783 8 9.6 8C9.81217 8 10.0157 7.91571 10.1657 7.76569C10.3157 7.61566 10.4 7.41217 10.4 7.2V4.8H21.6V7.2C21.6 7.41217 21.6843 7.61566 21.8343 7.76569C21.9843 7.91571 22.1878 8 22.4 8C22.6122 8 22.8157 7.91571 22.9657 7.76569C23.1157 7.61566 23.2 7.41217 23.2 7.2V4.8H28C28.6365 4.8 29.247 5.05286 29.6971 5.50294C30.1471 5.95303 30.4 6.56348 30.4 7.2V12.8Z" fill="white"/>
</svg>
