<svg width="32" height="26" viewBox="0 0 32 26" fill="none" xmlns="http://www.w3.org/2000/svg">
<path d="M3.2 26C2.32 26 1.56693 25.682 0.9408 25.0461C0.314667 24.4102 0.00106667 23.6448 0 22.75V3.25C0 2.35625 0.3136 1.59142 0.9408 0.9555C1.568 0.319583 2.32107 0.00108333 3.2 0H28.8C29.68 0 30.4336 0.3185 31.0608 0.9555C31.688 1.5925 32.0011 2.35733 32 3.25V22.75C32 23.6437 31.6869 24.4091 31.0608 25.0461C30.4347 25.6831 29.6811 26.0011 28.8 26H3.2ZM28.8 6.5L16.84 14.0969C16.7067 14.1781 16.5669 14.2393 16.4208 14.2805C16.2747 14.3217 16.1344 14.3417 16 14.3406C15.8656 14.3395 15.7259 14.3195 15.5808 14.2805C15.4357 14.2415 15.2955 14.1803 15.16 14.0969L3.2 6.5V22.75H28.8V6.5ZM16 11.375L28.8 3.25H3.2L16 11.375ZM3.2 6.90625V4.50937V4.55V4.5305V6.90625Z" fill="white"/>
</svg>
