<svg width="34" height="34" viewBox="0 0 34 34" fill="none" xmlns="http://www.w3.org/2000/svg">
<path d="M28.3067 13.6997L32.4176 14.3717C32.5804 14.3986 32.7283 14.4824 32.835 14.6082C32.9417 14.734 33.0002 14.8937 33 15.0587V18.8837C32.9999 19.0474 32.9421 19.2058 32.8368 19.3311C32.7314 19.4563 32.5852 19.5404 32.424 19.5685L28.3067 20.2917C28.0692 21.1195 27.7428 21.9095 27.3275 22.6619L29.7616 26.0411C29.8586 26.1752 29.9047 26.3396 29.8914 26.5046C29.8781 26.6696 29.8063 26.8245 29.6891 26.9413L26.984 29.6464C26.8684 29.7624 26.7156 29.834 26.5525 29.8484C26.3894 29.8629 26.2264 29.8193 26.0923 29.7253L22.6789 27.3296C21.9231 27.7492 21.1232 28.0841 20.2939 28.328L19.5685 32.4261C19.5399 32.5873 19.4553 32.7333 19.3297 32.8383C19.204 32.9432 19.0453 33.0005 18.8816 33H15.0587C14.8943 33.0002 14.7351 32.9419 14.6097 32.8356C14.4843 32.7293 14.4007 32.5819 14.3739 32.4197L13.6933 28.3429C12.8606 28.1018 12.0571 27.7691 11.2976 27.3509L7.90987 29.7253C7.77572 29.8193 7.61274 29.8629 7.44961 29.8484C7.28649 29.834 7.13369 29.7624 7.01813 29.6464L4.31093 26.9413C4.19596 26.8241 4.12557 26.6704 4.11193 26.5068C4.0983 26.3432 4.14228 26.1799 4.23627 26.0453L6.632 22.696C6.20928 21.9329 5.87298 21.1251 5.62933 20.2875L1.57387 19.5685C1.41301 19.54 1.26735 19.4557 1.16242 19.3305C1.05749 19.2053 0.999989 19.0471 1 18.8837V15.0587C1 14.7173 1.24533 14.4272 1.5824 14.3717L5.63787 13.6955C5.88391 12.8564 6.21813 12.0542 6.64053 11.2891L4.27253 7.9056C4.17916 7.77164 4.13591 7.6091 4.15034 7.44646C4.16477 7.28381 4.23597 7.13142 4.35147 7.016L7.05867 4.31307C7.17501 4.19658 7.32891 4.12515 7.49298 4.11147C7.65705 4.0978 7.82065 4.14278 7.95467 4.2384L11.3147 6.6384C12.0727 6.22311 12.8699 5.896 13.7061 5.65707L14.3717 1.5824C14.3986 1.41962 14.4824 1.27168 14.6082 1.16499C14.734 1.05831 14.8937 0.99983 15.0587 1H18.8837C19.2229 1 19.5109 1.2432 19.5707 1.576L20.2875 5.672C21.1195 5.91236 21.9159 6.24302 22.6768 6.664L26.0432 4.24267C26.1771 4.14535 26.3413 4.09898 26.5063 4.11188C26.6713 4.12479 26.8263 4.19612 26.9435 4.31307L29.6485 7.01813C29.7643 7.13395 29.8354 7.28689 29.8494 7.45C29.8635 7.61312 29.8195 7.77597 29.7253 7.90987L27.3253 11.3296C27.7378 12.0834 28.0649 12.8727 28.3067 13.6976V13.6997ZM12.1275 17C12.1275 18.2917 12.6406 19.5305 13.554 20.4439C14.4674 21.3573 15.7062 21.8704 16.9979 21.8704C18.2896 21.8704 19.5284 21.3573 20.4418 20.4439C21.3551 19.5305 21.8683 18.2917 21.8683 17C21.8683 15.7083 21.3551 14.4695 20.4418 13.5561C19.5284 12.6427 18.2896 12.1296 16.9979 12.1296C15.7062 12.1296 14.4674 12.6427 13.554 13.5561C12.6406 14.4695 12.1275 15.7083 12.1275 17Z" stroke="white" stroke-width="2"/>
</svg>
